<svg xmlns="http://www.w3.org/2000/svg" width="780" height="780" preserveAspectRatio="xMinYMin meet" version="1.1" viewBox="0 0 780 780"><title>RIFE2 SVG Clock</title><circle cx="360" cy="360" r="354" fill="#E6E6F0" stroke="#000" stroke-width="10"/><line x1="360" x2="360" y1="20" y2="75" stroke="#80808A" stroke-width="16" transform="rotate( {{v degree/}} 360 360)"/><line x1="360" x2="360" y1="20" y2="35" stroke="#80808A" stroke-width="6" class="minute-mark" transform="rotate( {{v degree/}} 360 360)"/><line x1="360" x2="360" y1="103" y2="400" stroke="#000" stroke-linecap="round" stroke-opacity=".15" stroke-width="26" transform="translate(4 4) rotate( {{v degree/}} 360 360)"/><line x1="360" x2="360" y1="103" y2="400" stroke="#000" stroke-linecap="round" stroke-width="26" transform="rotate( {{v degree/}} 360 360)"/><line x1="360" x2="360" y1="58" y2="400" stroke="#000" stroke-linecap="round" stroke-opacity=".15" stroke-width="26" transform="translate(4 4) rotate( {{v degree/}} 360 360)"/><line x1="360" x2="360" y1="58" y2="400" stroke="#000" stroke-linecap="round" stroke-width="26" transform="rotate( {{v degree/}} 360 360)"/><line x1="360" x2="360" y1="90" y2="440" stroke="gray" stroke-opacity=".15" stroke-width="8" transform="translate(4 4) rotate( {{v degree/}} 360 360)"/><line x1="360" x2="360" y1="90" y2="440" stroke="#DA0000" stroke-width="8" transform="rotate( {{v degree/}} 360 360)"/><circle cx="360" cy="360" r="12" fill="#DA0000" stroke-width="0"/></svg>